<svg width="30" height="30" viewBox="0 0 30 30" fill="none" xmlns="http://www.w3.org/2000/svg">
<path d="M5.62498 16.25C3.9025 16.25 2.5 17.6525 2.5 19.375C2.5 21.0974 3.9025 22.5 5.62498 22.5C7.34747 22.5 8.74997 21.0975 8.74997 19.375C8.74997 17.6525 7.34747 16.25 5.62498 16.25ZM5.62498 21.25C4.59121 21.25 3.74998 20.4088 3.74998 19.375C3.74998 18.3413 4.59121 17.5 5.62498 17.5C6.65875 17.5 7.49999 18.3413 7.49999 19.375C7.49999 20.4087 6.65875 21.25 5.62498 21.25Z" fill="black"/>
<path d="M24.375 16.25C22.6525 16.25 21.25 17.6525 21.25 19.375C21.25 21.0974 22.6525 22.5 24.375 22.5C26.0975 22.5 27.5 21.0975 27.5 19.375C27.5 17.6525 26.0975 16.25 24.375 16.25ZM24.375 21.25C23.3412 21.25 22.5 20.4088 22.5 19.375C22.5 18.3413 23.3412 17.5 24.375 17.5C25.4088 17.5 26.25 18.3413 26.25 19.375C26.25 20.4087 25.4088 21.25 24.375 21.25Z" fill="black"/>
<path d="M26.25 12.5H25.1925C24.8062 12.5 24.4275 12.3675 24.125 12.125L19.2 8.18496C18.6475 7.74375 17.9538 7.5 17.2475 7.5H8.2125C7.16502 7.5 6.19377 8.02002 5.61252 8.89125L4.54875 10.4887C4.23 10.965 3.6975 11.25 3.12498 11.25C1.4025 11.25 0 12.6525 0 14.375V16.875C0 18.5975 1.4025 20 3.12498 20C3.46998 20 3.75 19.72 3.75 19.375C3.75 19.03 3.46998 18.75 3.12498 18.75C2.09121 18.75 1.24998 17.9088 1.24998 16.875V14.375C1.24998 13.3412 2.09121 12.5 3.12498 12.5C4.1175 12.5 5.03748 12.0075 5.58873 11.1812L6.6525 9.58494C7.00125 9.06246 7.58502 8.74992 8.2125 8.74992H17.2475C17.6725 8.74992 18.0875 8.89617 18.42 9.16119L23.345 13.0999C23.8662 13.5187 24.5237 13.7499 25.1937 13.7499H26.25C28.0837 13.7499 28.75 15.6186 28.75 16.8749C28.75 18.1061 27.8075 18.7499 26.875 18.7499C26.53 18.7499 26.25 19.0299 26.25 19.3749C26.25 19.7199 26.53 19.9999 26.875 19.9999C28.6563 20 30 18.6562 30 16.875C30 14.7537 28.6863 12.5 26.25 12.5Z" fill="black"/>
<path d="M21.875 18.75H8.12502C7.78002 18.75 7.5 19.03 7.5 19.375C7.5 19.72 7.78002 20 8.12502 20H21.875C22.22 20 22.5001 19.72 22.5001 19.375C22.5001 19.03 22.22 18.75 21.875 18.75Z" fill="black"/>
<path d="M20.625 12.5H15V10.625C15 10.28 14.72 9.99995 14.375 9.99995C14.03 9.99995 13.7499 10.28 13.7499 10.625V13.125C13.7499 13.47 14.03 13.75 14.375 13.75H20.625C20.97 13.75 21.25 13.47 21.25 13.125C21.25 12.78 20.97 12.5 20.625 12.5Z" fill="black"/>
<path d="M11.875 12.5H7.88628L8.68503 10.905C8.83878 10.5963 8.7138 10.2213 8.40501 10.0662C8.09499 9.91248 7.72128 10.0362 7.56624 10.3463L6.31626 12.8463C6.21876 13.0388 6.23001 13.27 6.34374 13.4538C6.45747 13.6375 6.65874 13.75 6.87501 13.75H11.875C12.22 13.75 12.5 13.47 12.5 13.125C12.5 12.78 12.22 12.5 11.875 12.5Z" fill="black"/>
<path d="M16.875 15H15.625C15.28 15 15 15.28 15 15.625C15 15.97 15.28 16.25 15.625 16.25H16.875C17.22 16.25 17.5 15.97 17.5 15.625C17.5 15.28 17.22 15 16.875 15Z" fill="black"/>
</svg>
