<svg width="15" height="15" viewBox="0 0 15 15" fill="none" xmlns="http://www.w3.org/2000/svg">
<path d="M13.81 2.12631C13.0336 1.28414 11.9681 0.820312 10.8097 0.820312C9.94389 0.820312 9.15092 1.09406 8.45284 1.63387C8.10059 1.90636 7.78141 2.23972 7.5 2.62882C7.2187 2.23984 6.89941 1.90636 6.54705 1.63387C5.84908 1.09406 5.05611 0.820312 4.19025 0.820312C3.03188 0.820312 1.96632 1.28414 1.18984 2.12631C0.42263 2.95864 0 4.09573 0 5.32825C0 6.59683 0.472755 7.75806 1.48773 8.98281C2.39571 10.0784 3.70068 11.1905 5.21187 12.4783C5.72788 12.9181 6.31279 13.4166 6.92013 13.9476C7.08057 14.0881 7.28645 14.1655 7.5 14.1655C7.71343 14.1655 7.91943 14.0881 8.07964 13.9478C8.68698 13.4167 9.27223 12.918 9.78848 12.478C11.2994 11.1904 12.6044 10.0784 13.5124 8.9827C14.5274 7.75806 15 6.59683 15 5.32814C15 4.09573 14.5774 2.95864 13.81 2.12631Z" fill="#C4C4C4"/>
</svg>
